<?xml version="1.0" encoding="UTF-8"?>
<svg width="14px" height="14px" viewBox="0 0 14 14" version="1.1" xmlns="http://www.w3.org/2000/svg" xmlns:xlink="http://www.w3.org/1999/xlink">
    <!-- Generator: Sketch 52.2 (67145) - http://www.bohemiancoding.com/sketch -->
    <title>Shape</title>
    <desc>Created with Sketch.</desc>
    <g id="Symbols" stroke="none" stroke-width="1" fill="none" fill-rule="evenodd">
        <g id="nevi" transform="translate(-1227.000000, -14.000000)" fill="#FFFFFF" fill-rule="nonzero">
            <path d="M1233.76562,14 C1230.03507,14 1227,17.0350681 1227,20.7656748 C1227,24.4962317 1230.03507,27.53125 1233.76562,27.53125 C1237.49618,27.53125 1240.53125,24.4962317 1240.53125,20.7656748 C1240.53125,17.0350681 1237.49618,14 1233.76562,14 Z M1233.76562,26.4903578 C1231.94547,26.4903578 1230.32105,25.6364367 1229.27174,24.3082146 C1230.26188,23.3938791 1231.5528,22.8069671 1232.95225,22.6429066 C1233.19326,22.6146169 1233.38272,22.4236115 1233.40902,22.1823521 C1233.43531,21.9411424 1233.29137,21.7137787 1233.06217,21.6342886 C1232.19893,21.3350053 1231.61889,20.519883 1231.61889,19.6060455 C1231.61889,18.4223599 1232.58189,17.4593641 1233.76562,17.4593641 C1234.94936,17.4593641 1235.91236,18.4223599 1235.91236,19.6060455 C1235.91236,20.519883 1235.33232,21.3349057 1234.46903,21.6342886 C1234.23978,21.7137787 1234.09589,21.9411424 1234.12218,22.1823521 C1234.14848,22.4235617 1234.33794,22.6146169 1234.57895,22.6429066 C1235.9784,22.8070169 1237.26932,23.3938791 1238.25951,24.3082146 C1237.21015,25.6364367 1235.58578,26.4903578 1233.76562,26.4903578 Z M1236.0039,21.8752991 C1236.59788,21.2887855 1236.9532,20.4776975 1236.9532,19.6060953 C1236.9532,17.8484971 1235.52327,16.4185715 1233.76562,16.4185715 C1232.00798,16.4185715 1230.57805,17.8484971 1230.57805,19.6060953 C1230.57805,20.4776476 1230.93347,21.2887357 1231.52735,21.8752991 C1230.47331,22.1859381 1229.50623,22.7149757 1228.69763,23.4255058 C1228.27857,22.6303058 1228.04089,21.7252839 1228.04089,20.7657246 C1228.04089,17.6090306 1230.60903,15.040942 1233.76562,15.040942 C1236.92222,15.040942 1239.49036,17.6090306 1239.49036,20.7656748 C1239.49036,21.7252341 1239.25268,22.630256 1238.83362,23.4255058 C1238.02502,22.7149259 1237.05794,22.1859381 1236.0039,21.8752991 Z" id="Shape"></path>
        </g>
    </g>
</svg>